<svg width="25" height="24" viewBox="0 0 25 24" fill="none" xmlns="http://www.w3.org/2000/svg">
<mask id="mask0_1012_460" style="mask-type:alpha" maskUnits="userSpaceOnUse" x="0" y="0" width="25" height="24">
<rect x="0.801651" width="24" height="24" fill="white"/>
</mask>
<g mask="url(#mask0_1012_460)">
<path d="M16.8017 13.5C17.235 13.5 17.5933 13.3583 17.8767 13.075C18.16 12.7917 18.3017 12.4333 18.3017 12C18.3017 11.5667 18.16 11.2083 17.8767 10.925C17.5933 10.6417 17.235 10.5 16.8017 10.5C16.3683 10.5 16.01 10.6417 15.7267 10.925C15.4433 11.2083 15.3017 11.5667 15.3017 12C15.3017 12.4333 15.4433 12.7917 15.7267 13.075C16.01 13.3583 16.3683 13.5 16.8017 13.5ZM6.10165 20.5C5.60165 20.5 5.17665 20.325 4.82665 19.975C4.47665 19.625 4.30165 19.2 4.30165 18.7V5.3C4.30165 4.8 4.47665 4.375 4.82665 4.025C5.17665 3.675 5.60165 3.5 6.10165 3.5H19.5017C20.0017 3.5 20.4267 3.675 20.7767 4.025C21.1267 4.375 21.3017 4.8 21.3017 5.3V8.025H19.8017V5.3C19.8017 5.21667 19.7727 5.146 19.7147 5.088C19.656 5.02933 19.585 5 19.5017 5H6.10165C6.01832 5 5.94765 5.02933 5.88965 5.088C5.83098 5.146 5.80165 5.21667 5.80165 5.3V18.7C5.80165 18.7833 5.83098 18.8543 5.88965 18.913C5.94765 18.971 6.01832 19 6.10165 19H19.5017C19.585 19 19.656 18.971 19.7147 18.913C19.7727 18.8543 19.8017 18.7833 19.8017 18.7V15.975H21.3017V18.7C21.3017 19.2 21.1267 19.625 20.7767 19.975C20.4267 20.325 20.0017 20.5 19.5017 20.5H6.10165ZM14.1017 16.5C13.6017 16.5 13.1767 16.325 12.8267 15.975C12.4767 15.625 12.3017 15.2 12.3017 14.7V9.3C12.3017 8.8 12.4767 8.375 12.8267 8.025C13.1767 7.675 13.6017 7.5 14.1017 7.5H20.5017C21.0017 7.5 21.4267 7.675 21.7767 8.025C22.1267 8.375 22.3017 8.8 22.3017 9.3V14.7C22.3017 15.2 22.1267 15.625 21.7767 15.975C21.4267 16.325 21.0017 16.5 20.5017 16.5H14.1017ZM20.5017 15C20.585 15 20.656 14.9707 20.7147 14.912C20.7727 14.854 20.8017 14.7833 20.8017 14.7V9.3C20.8017 9.21667 20.7727 9.14567 20.7147 9.087C20.656 9.029 20.585 9 20.5017 9H14.1017C14.0183 9 13.9477 9.029 13.8897 9.087C13.831 9.14567 13.8017 9.21667 13.8017 9.3V14.7C13.8017 14.7833 13.831 14.854 13.8897 14.912C13.9477 14.9707 14.0183 15 14.1017 15H20.5017Z" fill="white"/>
</g>
</svg>
