<svg width="19" height="18" viewBox="0 0 19 18" fill="none" xmlns="http://www.w3.org/2000/svg">
<path d="M12.8017 10.5C13.235 10.5 13.5933 10.3583 13.8767 10.075C14.16 9.79167 14.3017 9.43333 14.3017 9C14.3017 8.56667 14.16 8.20833 13.8767 7.925C13.5933 7.64167 13.235 7.5 12.8017 7.5C12.3683 7.5 12.01 7.64167 11.7267 7.925C11.4433 8.20833 11.3017 8.56667 11.3017 9C11.3017 9.43333 11.4433 9.79167 11.7267 10.075C12.01 10.3583 12.3683 10.5 12.8017 10.5ZM2.10165 17.5C1.60165 17.5 1.17665 17.325 0.826651 16.975C0.476651 16.625 0.301651 16.2 0.301651 15.7V2.3C0.301651 1.8 0.476651 1.375 0.826651 1.025C1.17665 0.675 1.60165 0.5 2.10165 0.5H15.5017C16.0017 0.5 16.4267 0.675 16.7767 1.025C17.1267 1.375 17.3017 1.8 17.3017 2.3V5.025H15.8017V2.3C15.8017 2.21667 15.7727 2.146 15.7147 2.088C15.656 2.02933 15.585 2 15.5017 2H2.10165C2.01832 2 1.94765 2.02933 1.88965 2.088C1.83098 2.146 1.80165 2.21667 1.80165 2.3V15.7C1.80165 15.7833 1.83098 15.8543 1.88965 15.913C1.94765 15.971 2.01832 16 2.10165 16H15.5017C15.585 16 15.656 15.971 15.7147 15.913C15.7727 15.8543 15.8017 15.7833 15.8017 15.7V12.975H17.3017V15.7C17.3017 16.2 17.1267 16.625 16.7767 16.975C16.4267 17.325 16.0017 17.5 15.5017 17.5H2.10165ZM10.1017 13.5C9.60165 13.5 9.17665 13.325 8.82665 12.975C8.47665 12.625 8.30165 12.2 8.30165 11.7V6.3C8.30165 5.8 8.47665 5.375 8.82665 5.025C9.17665 4.675 9.60165 4.5 10.1017 4.5H16.5017C17.0017 4.5 17.4267 4.675 17.7767 5.025C18.1267 5.375 18.3017 5.8 18.3017 6.3V11.7C18.3017 12.2 18.1267 12.625 17.7767 12.975C17.4267 13.325 17.0017 13.5 16.5017 13.5H10.1017ZM16.5017 12C16.585 12 16.656 11.9707 16.7147 11.912C16.7727 11.854 16.8017 11.7833 16.8017 11.7V6.3C16.8017 6.21667 16.7727 6.14567 16.7147 6.087C16.656 6.029 16.585 6 16.5017 6H10.1017C10.0183 6 9.94765 6.029 9.88965 6.087C9.83099 6.14567 9.80165 6.21667 9.80165 6.3V11.7C9.80165 11.7833 9.83099 11.854 9.88965 11.912C9.94765 11.9707 10.0183 12 10.1017 12H16.5017Z" fill="white"/>
</svg>
