<svg width="32" height="32" viewBox="0 0 32 32" fill="none" xmlns="http://www.w3.org/2000/svg">
<mask id="mask0_101_423" style="mask-type:alpha" maskUnits="userSpaceOnUse" x="0" y="0" width="32" height="32">
<rect width="32" height="32" fill="#D9D9D9"/>
</mask>
<g mask="url(#mask0_101_423)">
<path d="M6.66667 28C5.93333 28 5.30533 27.7391 4.78267 27.2173C4.26089 26.6947 4 26.0667 4 25.3333V6.66667C4 5.93333 4.26089 5.30533 4.78267 4.78267C5.30533 4.26089 5.93333 4 6.66667 4H18.6667V6.66667H6.66667V25.3333H25.3333V13.3333H28V25.3333C28 26.0667 27.7391 26.6947 27.2173 27.2173C26.6947 27.7391 26.0667 28 25.3333 28H6.66667ZM22.6667 12V9.33333H20V6.66667H22.6667V4H25.3333V6.66667H28V9.33333H25.3333V12H22.6667ZM8 22.6667H24L19 16L15 21.3333L12 17.3333L8 22.6667Z" fill="#7D0CC1"/>
</g>
</svg>
