<svg width="25" height="25" viewBox="0 0 25 25" fill="none" xmlns="http://www.w3.org/2000/svg">
<mask id="mask0_1012_455" style="mask-type:alpha" maskUnits="userSpaceOnUse" x="0" y="0" width="25" height="25">
<rect x="0.801651" y="0.5" width="24" height="24" fill="#D9D9D9"/>
</mask>
<g mask="url(#mask0_1012_455)">
<path d="M9.67665 20.9998H5.80165C5.38498 20.9998 5.03098 20.8538 4.73965 20.5618C4.44765 20.2705 4.30165 19.9165 4.30165 19.4998V15.6248C4.98498 15.5415 5.57265 15.2581 6.06465 14.7748C6.55598 14.2915 6.80165 13.6998 6.80165 12.9998C6.80165 12.2998 6.55598 11.7081 6.06465 11.2248C5.57265 10.7415 4.98498 10.4581 4.30165 10.3748V6.4998C4.30165 6.08314 4.44765 5.72914 4.73965 5.4378C5.03098 5.1458 5.38498 4.9998 5.80165 4.9998H9.80165C9.88498 4.36647 10.16 3.84147 10.6267 3.4248C11.0933 3.00814 11.6517 2.7998 12.3017 2.7998C12.9517 2.7998 13.51 3.00814 13.9767 3.4248C14.4433 3.84147 14.7183 4.36647 14.8017 4.9998H18.8017C19.2183 4.9998 19.5723 5.1458 19.8637 5.4378C20.1557 5.72914 20.3017 6.08314 20.3017 6.4998V10.4998C20.935 10.5831 21.46 10.8581 21.8767 11.3248C22.2933 11.7915 22.5017 12.3498 22.5017 12.9998C22.5017 13.6498 22.2933 14.2081 21.8767 14.6748C21.46 15.1415 20.935 15.4165 20.3017 15.4998V19.4998C20.3017 19.9165 20.1557 20.2705 19.8637 20.5618C19.5723 20.8538 19.2183 20.9998 18.8017 20.9998H14.9267C14.8433 20.2831 14.5517 19.6871 14.0517 19.2118C13.5517 18.7371 12.9683 18.4998 12.3017 18.4998C11.635 18.4998 11.0517 18.7371 10.5517 19.2118C10.0517 19.6871 9.75998 20.2831 9.67665 20.9998ZM5.80165 19.4998H8.50165C8.85165 18.6165 9.39765 17.9788 10.1397 17.5868C10.881 17.1955 11.6017 16.9998 12.3017 16.9998C13.0017 16.9998 13.7227 17.1955 14.4647 17.5868C15.206 17.9788 15.7517 18.6165 16.1017 19.4998H18.8017V14.0498H20.0267C20.3433 14.0165 20.585 13.8958 20.7517 13.6878C20.9183 13.4791 21.0017 13.2498 21.0017 12.9998C21.0017 12.7498 20.9183 12.5205 20.7517 12.3118C20.585 12.1038 20.3433 11.9831 20.0267 11.9498H18.8017V6.4998H13.3517V5.2748C13.3183 4.95814 13.1977 4.71647 12.9897 4.5498C12.781 4.38314 12.5517 4.2998 12.3017 4.2998C12.0517 4.2998 11.8223 4.38314 11.6137 4.5498C11.4057 4.71647 11.285 4.95814 11.2517 5.2748V6.4998H5.80165V9.2498C6.56832 9.5498 7.17665 10.0415 7.62665 10.7248C8.07665 11.4081 8.30165 12.1665 8.30165 12.9998C8.30165 13.8165 8.07665 14.5665 7.62665 15.2498C7.17665 15.9331 6.56832 16.4331 5.80165 16.7498V19.4998Z" fill="white"/>
</g>
</svg>
