<svg width="18" height="20" viewBox="0 0 18 20" fill="none" xmlns="http://www.w3.org/2000/svg">
<path d="M2.80165 19.5002C2.10165 19.5002 1.50998 19.2585 1.02665 18.7752C0.543318 18.2919 0.301651 17.7002 0.301651 17.0002V14.5002H3.30165V0.700195L4.67665 1.8752L6.10165 0.700195L7.50165 1.8752L8.90165 0.700195L10.3017 1.8752L11.7017 0.700195L13.1017 1.8752L14.5017 0.700195L15.9267 1.8752L17.3017 0.700195V17.0002C17.3017 17.7002 17.06 18.2919 16.5767 18.7752C16.0933 19.2585 15.5017 19.5002 14.8017 19.5002H2.80165ZM14.8017 18.0002C15.085 18.0002 15.3223 17.9042 15.5137 17.7122C15.7057 17.5209 15.8017 17.2835 15.8017 17.0002V3.0002H4.80165V14.5002H13.8017V17.0002C13.8017 17.2835 13.8977 17.5209 14.0897 17.7122C14.281 17.9042 14.5183 18.0002 14.8017 18.0002ZM6.00165 6.7502V5.2502H11.6767V6.7502H6.00165ZM6.00165 9.7502V8.2502H11.6767V9.7502H6.00165ZM13.7517 6.8752C13.5017 6.8752 13.289 6.79186 13.1137 6.6252C12.939 6.45853 12.8517 6.2502 12.8517 6.0002C12.8517 5.7502 12.939 5.54186 13.1137 5.3752C13.289 5.20853 13.5017 5.1252 13.7517 5.1252C13.985 5.1252 14.189 5.20853 14.3637 5.3752C14.539 5.54186 14.6267 5.7502 14.6267 6.0002C14.6267 6.2502 14.539 6.45853 14.3637 6.6252C14.189 6.79186 13.985 6.8752 13.7517 6.8752ZM13.7517 9.8752C13.5017 9.8752 13.289 9.79186 13.1137 9.6252C12.939 9.45853 12.8517 9.2502 12.8517 9.0002C12.8517 8.7502 12.939 8.54186 13.1137 8.3752C13.289 8.20853 13.5017 8.1252 13.7517 8.1252C13.985 8.1252 14.189 8.20853 14.3637 8.3752C14.539 8.54186 14.6267 8.7502 14.6267 9.0002C14.6267 9.2502 14.539 9.45853 14.3637 9.6252C14.189 9.79186 13.985 9.8752 13.7517 9.8752ZM2.80165 18.0002H12.3017V16.0002H1.80165V17.0002C1.80165 17.2835 1.89732 17.5209 2.08865 17.7122C2.28065 17.9042 2.51832 18.0002 2.80165 18.0002Z" fill="white"/>
</svg>
