<svg width="25" height="24" viewBox="0 0 25 24" fill="none" xmlns="http://www.w3.org/2000/svg">
<mask id="mask0_1012_450" style="mask-type:alpha" maskUnits="userSpaceOnUse" x="0" y="0" width="25" height="24">
<rect x="0.801651" width="24" height="24" fill="white"/>
</mask>
<g mask="url(#mask0_1012_450)">
<path d="M6.80165 21.5002C6.10165 21.5002 5.50998 21.2585 5.02665 20.7752C4.54332 20.2919 4.30165 19.7002 4.30165 19.0002V16.5002H7.30165V2.7002L8.67665 3.8752L10.1017 2.7002L11.5017 3.8752L12.9017 2.7002L14.3017 3.8752L15.7017 2.7002L17.1017 3.8752L18.5017 2.7002L19.9267 3.8752L21.3017 2.7002V19.0002C21.3017 19.7002 21.06 20.2919 20.5767 20.7752C20.0933 21.2585 19.5017 21.5002 18.8017 21.5002H6.80165ZM18.8017 20.0002C19.085 20.0002 19.3223 19.9042 19.5137 19.7122C19.7057 19.5209 19.8017 19.2835 19.8017 19.0002V5.0002H8.80165V16.5002H17.8017V19.0002C17.8017 19.2835 17.8977 19.5209 18.0897 19.7122C18.281 19.9042 18.5183 20.0002 18.8017 20.0002ZM10.0017 8.7502V7.2502H15.6767V8.7502H10.0017ZM10.0017 11.7502V10.2502H15.6767V11.7502H10.0017ZM17.7517 8.8752C17.5017 8.8752 17.289 8.79186 17.1137 8.6252C16.939 8.45853 16.8517 8.2502 16.8517 8.0002C16.8517 7.7502 16.939 7.54186 17.1137 7.3752C17.289 7.20853 17.5017 7.1252 17.7517 7.1252C17.985 7.1252 18.189 7.20853 18.3637 7.3752C18.539 7.54186 18.6267 7.7502 18.6267 8.0002C18.6267 8.2502 18.539 8.45853 18.3637 8.6252C18.189 8.79186 17.985 8.8752 17.7517 8.8752ZM17.7517 11.8752C17.5017 11.8752 17.289 11.7919 17.1137 11.6252C16.939 11.4585 16.8517 11.2502 16.8517 11.0002C16.8517 10.7502 16.939 10.5419 17.1137 10.3752C17.289 10.2085 17.5017 10.1252 17.7517 10.1252C17.985 10.1252 18.189 10.2085 18.3637 10.3752C18.539 10.5419 18.6267 10.7502 18.6267 11.0002C18.6267 11.2502 18.539 11.4585 18.3637 11.6252C18.189 11.7919 17.985 11.8752 17.7517 11.8752Z" fill="white"/>
</g>
</svg>
