<svg width="25" height="24" viewBox="0 0 25 24" fill="none" xmlns="http://www.w3.org/2000/svg">
<mask id="mask0_1012_465" style="mask-type:alpha" maskUnits="userSpaceOnUse" x="0" y="0" width="25" height="24">
<rect x="0.801636" width="24" height="24" fill="white"/>
</mask>
<g mask="url(#mask0_1012_465)">
<path d="M7.80164 17.5C6.2683 17.5 4.9683 16.9667 3.90164 15.9C2.83497 14.8333 2.30164 13.5333 2.30164 12C2.30164 10.4667 2.83497 9.16667 3.90164 8.1C4.9683 7.03333 6.2683 6.5 7.80164 6.5H17.8016C19.335 6.5 20.635 7.03333 21.7016 8.1C22.7683 9.16667 23.3016 10.4667 23.3016 12C23.3016 13.5333 22.7683 14.8333 21.7016 15.9C20.635 16.9667 19.335 17.5 17.8016 17.5H7.80164ZM7.80164 16H17.8016C18.9016 16 19.8433 15.6083 20.6266 14.825C21.41 14.0417 21.8016 13.1 21.8016 12C21.8016 10.9 21.41 9.95833 20.6266 9.175C19.8433 8.39167 18.9016 8 17.8016 8H7.80164C6.70164 8 5.75997 8.39167 4.97664 9.175C4.1933 9.95833 3.80164 10.9 3.80164 12C3.80164 13.1 4.1933 14.0417 4.97664 14.825C5.75997 15.6083 6.70164 16 7.80164 16ZM7.80164 14.75C8.5683 14.75 9.2183 14.4833 9.75164 13.95C10.285 13.4167 10.5516 12.7667 10.5516 12C10.5516 11.2333 10.285 10.5833 9.75164 10.05C9.2183 9.51667 8.5683 9.25 7.80164 9.25C7.03497 9.25 6.38497 9.51667 5.85164 10.05C5.3183 10.5833 5.05164 11.2333 5.05164 12C5.05164 12.7667 5.3183 13.4167 5.85164 13.95C6.38497 14.4833 7.03497 14.75 7.80164 14.75Z" fill="white"/>
</g>
</svg>
