<svg width="22" height="12" viewBox="0 0 22 12" fill="none" xmlns="http://www.w3.org/2000/svg">
<path d="M5.80164 11.5C4.2683 11.5 2.9683 10.9667 1.90164 9.9C0.834969 8.83333 0.301636 7.53333 0.301636 6C0.301636 4.46667 0.834969 3.16667 1.90164 2.1C2.9683 1.03333 4.2683 0.5 5.80164 0.5H15.8016C17.335 0.5 18.635 1.03333 19.7016 2.1C20.7683 3.16667 21.3016 4.46667 21.3016 6C21.3016 7.53333 20.7683 8.83333 19.7016 9.9C18.635 10.9667 17.335 11.5 15.8016 11.5H5.80164ZM5.80164 10H15.8016C16.9016 10 17.8433 9.60833 18.6266 8.825C19.41 8.04167 19.8016 7.1 19.8016 6C19.8016 4.9 19.41 3.95833 18.6266 3.175C17.8433 2.39167 16.9016 2 15.8016 2H5.80164C4.70164 2 3.75997 2.39167 2.97664 3.175C2.1933 3.95833 1.80164 4.9 1.80164 6C1.80164 7.1 2.1933 8.04167 2.97664 8.825C3.75997 9.60833 4.70164 10 5.80164 10ZM5.80164 8.75C6.5683 8.75 7.2183 8.48333 7.75164 7.95C8.28497 7.41667 8.55164 6.76667 8.55164 6C8.55164 5.23333 8.28497 4.58333 7.75164 4.05C7.2183 3.51667 6.5683 3.25 5.80164 3.25C5.03497 3.25 4.38497 3.51667 3.85164 4.05C3.3183 4.58333 3.05164 5.23333 3.05164 6C3.05164 6.76667 3.3183 7.41667 3.85164 7.95C4.38497 8.48333 5.03497 8.75 5.80164 8.75Z" fill="white"/>
</svg>
